<svg width="16" height="16" viewBox="0 0 16 16" fill="none" xmlns="http://www.w3.org/2000/svg">
<g id="Frame">
<path id="Vector" d="M5.6665 9.66683H10.3332M5.6665 6.3335H7.99984" stroke="#3F322E" stroke-linecap="round" stroke-linejoin="round"/>
<path id="Vector_2" d="M9.44723 13.9268C12.2359 13.7415 14.4572 11.4886 14.64 8.66044C14.6758 8.10697 14.6758 7.53377 14.64 6.9803C14.4572 4.15209 12.2359 1.89926 9.44723 1.71388C8.49583 1.65064 7.50256 1.65078 6.55309 1.71388C3.76442 1.89926 1.5431 4.15209 1.36032 6.9803C1.32455 7.53377 1.32455 8.10697 1.36032 8.66044C1.42689 9.6905 1.88245 10.6442 2.41877 11.4496C2.73017 12.0134 2.52465 12.717 2.2003 13.3317C1.96643 13.7749 1.8495 13.9965 1.94339 14.1566C2.03728 14.3166 2.247 14.3218 2.66645 14.332C3.49594 14.3522 4.05528 14.117 4.49928 13.7896C4.75109 13.6039 4.87701 13.511 4.96379 13.5004C5.05056 13.4897 5.22134 13.56 5.56283 13.7007C5.86976 13.8271 6.22613 13.9051 6.55309 13.9268C7.50256 13.99 8.49583 13.9901 9.44723 13.9268Z" stroke="#3F322E" stroke-linejoin="round"/>
</g>
</svg>
